# xmcd CD database file
#
# Track frame offsets:
#	150
#	14930
#	36642
#	48175
#	71355
#	89870
#	108335
#	127965
#	151102
#	163305
#
# Disc length: 2366 seconds
#
# Revision: 1
# Processed by: cddbd v1.5.1PL0 Copyright (c) Steve Scherf et al.
# Submitted via: CDex 1.51
#
DISCID=8a093c0a
DTITLE=Andre van Duin - And're André 2
DYEAR=1978
DGENRE=Nederlands
TTITLE0=De postkoets
TTITLE1=Omdat ik zoveel van je hou
TTITLE2=E Viva Espana
TTITLE3=Als een wilde orchidee
TTITLE4=Middellandse zee
TTITLE5=Weet je wat we doen
TTITLE6=Middellandse zee
TTITLE7=File
TTITLE8=Een cent
TTITLE9=Kijk eens in de poppetjes van mijn ogen
EXTD=YEAR: 1978
EXTT0=
EXTT1=
EXTT2=
EXTT3=
EXTT4=
EXTT5=
EXTT6=
EXTT7=
EXTT8=
EXTT9=
PLAYORDER=
